<?xml version="1.0" encoding="UTF-8" standalone="no"?>
<!-- Created with Inkscape (http://www.inkscape.org/) -->

<svg
   xmlns:dc="http://purl.org/dc/elements/1.1/"
   xmlns:cc="http://creativecommons.org/ns#"
   xmlns:rdf="http://www.w3.org/1999/02/22-rdf-syntax-ns#"
   xmlns:svg="http://www.w3.org/2000/svg"
   xmlns="http://www.w3.org/2000/svg"
   xmlns:sodipodi="http://sodipodi.sourceforge.net/DTD/sodipodi-0.dtd"
   xmlns:inkscape="http://www.inkscape.org/namespaces/inkscape"
   width="150.99625"
   height="51.071201"
   viewBox="0 0 150.99625 51.071201"
   id="svg4682"
   version="1.1"
   inkscape:version="0.91 r13725"
   sodipodi:docname="tsys.svg">
  <defs
     id="defs4684" />
  <sodipodi:namedview
     id="base"
     pagecolor="#ffffff"
     bordercolor="#666666"
     borderopacity="1.0"
     inkscape:pageopacity="0.0"
     inkscape:pageshadow="2"
     inkscape:zoom="6.0334842"
     inkscape:cx="74.998125"
     inkscape:cy="25.0356"
     inkscape:document-units="px"
     inkscape:current-layer="layer1"
     showgrid="false"
     fit-margin-top="0"
     fit-margin-left="0"
     fit-margin-right="0"
     fit-margin-bottom="0"
     units="px"
     inkscape:window-width="1280"
     inkscape:window-height="744"
     inkscape:window-x="-4"
     inkscape:window-y="-4"
     inkscape:window-maximized="1" />
  <metadata
     id="metadata4687">
    <rdf:RDF>
      <cc:Work
         rdf:about="">
        <dc:format>image/svg+xml</dc:format>
        <dc:type
           rdf:resource="http://purl.org/dc/dcmitype/StillImage" />
        <dc:title></dc:title>
      </cc:Work>
    </rdf:RDF>
  </metadata>
  <g
     inkscape:label="Layer 1"
     inkscape:groupmode="layer"
     id="layer1"
     transform="translate(-416.43045,-592.04089)">
    <g
       transform="matrix(1.25,0,0,-1.25,416.93045,598.56584)"
       id="g4153">
      <path
         inkscape:connector-curvature="0"
         id="path4155"
         style="fill:#00406e;fill-opacity:1;fill-rule:nonzero;stroke:none"
         d="m 0,0 0,-7.603 7.848,0 0,-23.11 9.777,0 0,23.11 7.847,0 0,7.603" />
    </g>
    <g
       transform="matrix(1.25,0,0,-1.25,499.56295,599.52214)"
       id="g4157">
      <path
         inkscape:connector-curvature="0"
         id="path4159"
         style="fill:#00406e;fill-opacity:1;fill-rule:nonzero;stroke:none"
         d="M 0,0 5.777,-9.748 11.472,0 22.316,0 10.384,-16.969 l 0,-12.319 -9.338,0 0,12.319 L -10.799,0" />
    </g>
    <g
       transform="matrix(1.25,0,0,-1.25,542.41045,612.32834)"
       id="g4161">
      <path
         inkscape:connector-curvature="0"
         id="path4163"
         style="fill:#00406e;fill-opacity:1;fill-rule:nonzero;stroke:none"
         d="m 0,0 c -2.553,0.454 -4.062,0.827 -4.062,2.241 0,1.491 1.759,1.905 3.351,1.905 1.506,0 3.765,-0.25 5.485,-1.077 C 6.07,2.405 6.575,1.741 7.034,1.16 l 2.434,2.015 0,-5.908 C 6.969,-1.207 3.491,-0.596 0,0 m 10.148,15.829 c -0.379,0 -0.68,-0.304 -0.68,-0.678 l 0,-6.309 c -0.289,0.164 -0.593,0.329 -0.927,0.49 -2.429,1.203 -5.524,1.867 -8.918,1.867 -5.316,0 -10.298,-1.7 -12.224,-6.015 -0.543,-1.16 -0.838,-2.491 -0.838,-3.776 0,-6.182 5.318,-7.842 8.037,-8.547 1.217,-0.29 6.658,-1.242 7.705,-1.616 1.632,-0.541 1.632,-1.62 1.632,-1.825 0,-2.118 -3.682,-2.198 -4.437,-2.198 -1.423,0 -2.932,0.248 -4.145,0.662 -2.554,0.83 -3.265,1.909 -4.102,3.193 l -7.16,-4.563 c 1.34,-1.618 3.516,-4.229 8.208,-5.557 2.299,-0.662 4.645,-0.871 6.864,-0.871 1.491,0 6.589,0.003 10.305,2.894 l 0,-6.533 c 0,-0.37 0.301,-0.674 0.68,-0.674 0.377,0 0.68,0.304 0.68,0.674 l 0,38.704 c 0,0.374 -0.303,0.678 -0.68,0.678" />
    </g>
    <g
       transform="matrix(1.25,0,0,-1.25,470.44045,628.29964)"
       id="g4165">
      <path
         inkscape:connector-curvature="0"
         id="path4167"
         style="fill:#00406e;fill-opacity:1;fill-rule:nonzero;stroke:none"
         d="m 0,0 c -1.422,0 -2.93,0.247 -4.146,0.662 -2.554,0.83 -3.266,1.908 -4.1,3.193 l -2.518,-1.6 0,6.327 C -8.977,6.798 -6.493,6.054 -4.898,5.639 -3.685,5.349 1.757,4.397 2.804,4.023 4.438,3.482 4.438,2.402 4.438,2.198 4.438,0.08 0.753,0 0,0 m 0.503,12.778 c -2.554,0.453 -4.063,0.827 -4.063,2.241 0,1.491 1.76,1.904 3.349,1.904 1.507,0 3.77,-0.25 5.487,-1.076 1.297,-0.664 1.8,-1.328 2.26,-1.909 l 5.863,4.854 c -1.048,1.077 -2.139,2.239 -4.355,3.317 -2.429,1.204 -5.526,1.867 -8.919,1.867 -4.353,0 -8.477,-1.139 -10.889,-3.915 l 0,7.868 c 0,0.374 -0.301,0.678 -0.678,0.678 -0.378,0 -0.685,-0.304 -0.685,-0.678 l 0,-38.704 c 0,-0.37 0.307,-0.674 0.685,-0.674 0.377,0 0.678,0.304 0.678,0.674 l 0,5.974 c 0.994,-0.56 2.168,-1.069 3.563,-1.464 2.303,-0.662 4.646,-0.871 6.864,-0.871 1.633,0 7.58,0 11.306,3.775 1.34,1.367 2.641,3.526 2.641,6.595 0,7.261 -6.534,8.422 -13.107,9.544" />
    </g>
    <g
       transform="matrix(1.25,0,0,-1.25,563.17045,600.95834)"
       id="g4169">
      <path
         inkscape:connector-curvature="0"
         id="path4171"
         style="fill:#00406e;fill-opacity:1;fill-rule:nonzero;stroke:none"
         d="M 0,0 0.213,0 C 0.51,0 0.695,-0.012 0.772,-0.036 L 0.947,-0.155 1.009,-0.345 0.947,-0.54 0.773,-0.661 C 0.7,-0.684 0.514,-0.696 0.213,-0.696 L 0,-0.696 0,0 Z m 0,-2.156 0,1.054 0.136,0 c 0.147,0 0.267,-0.036 0.364,-0.109 0.094,-0.072 0.213,-0.249 0.357,-0.528 l 0.213,-0.417 0.651,0 -0.302,0.517 C 1.312,-1.456 1.248,-1.353 1.228,-1.327 1.154,-1.23 1.097,-1.164 1.054,-1.129 l -0.181,0.095 c 0.219,0.031 0.389,0.113 0.509,0.244 0.122,0.131 0.182,0.289 0.182,0.474 0,0.134 -0.032,0.257 -0.096,0.367 C 1.403,0.162 1.323,0.243 1.226,0.296 1.131,0.351 0.996,0.384 0.823,0.399 0.764,0.403 0.491,0.406 0.001,0.406 l -0.521,0 0,-2.562 0.52,0 z M -0.624,1.25 C -1.006,1.042 -1.307,0.744 -1.526,0.356 c -0.219,-0.388 -0.329,-0.795 -0.329,-1.217 0,-0.423 0.108,-0.825 0.324,-1.208 0.213,-0.381 0.512,-0.681 0.897,-0.894 0.385,-0.214 0.786,-0.322 1.21,-0.322 0.422,0 0.826,0.108 1.209,0.322 0.386,0.213 0.685,0.513 0.899,0.894 0.214,0.383 0.321,0.785 0.321,1.208 0,0.422 -0.108,0.829 -0.328,1.217 C 2.459,0.744 2.159,1.042 1.775,1.25 1.392,1.457 0.993,1.561 0.576,1.561 0.159,1.561 -0.24,1.457 -0.624,1.25 M 1.54,0.832 C 1.848,0.666 2.09,0.426 2.268,0.115 2.444,-0.196 2.533,-0.522 2.533,-0.863 2.533,-1.202 2.445,-1.526 2.273,-1.832 2.099,-2.14 1.858,-2.379 1.55,-2.553 1.242,-2.725 0.919,-2.811 0.578,-2.811 c -0.339,0 -0.662,0.086 -0.971,0.258 -0.309,0.174 -0.549,0.413 -0.723,0.721 -0.171,0.306 -0.257,0.63 -0.257,0.969 0,0.341 0.088,0.667 0.264,0.978 0.177,0.311 0.418,0.551 0.725,0.717 0.307,0.167 0.627,0.25 0.962,0.25 0.334,0 0.655,-0.083 0.962,-0.25" />
    </g>
  </g>
</svg>
